<?xml version="1.0" ?><!DOCTYPE svg  PUBLIC '-//W3C//DTD SVG 1.1//EN'  'http://www.w3.org/Graphics/SVG/1.1/DTD/svg11.dtd'><svg width="13333.33px" height="13333.33px" viewBox="0 0 13333.33 13333.33" style="shape-rendering:geometricPrecision; text-rendering:geometricPrecision; image-rendering:optimizeQuality; fill-rule:evenodd; clip-rule:evenodd" version="1.1" xml:space="preserve" xmlns="http://www.w3.org/2000/svg" xmlns:xlink="http://www.w3.org/1999/xlink" xmlns:xodm="http://www.corel.com/coreldraw/odm/2003"><defs><style type="text/css">
   <![CDATA[
    .fil0 {fill:#03A9F4}
    .fil2 {fill:#4FC3F7}
    .fil1 {fill:#FFFF66}
   ]]>
  </style></defs><g id="Layer_x0020_1"><path class="fil0" d="M2871.32 4370.03c0,-979.39 723.11,-1795.61 1662.63,-1941.95 119.3,-345.79 447.95,-594.74 833.84,-594.74l481.87 0c369.02,0 685.71,227.68 817.01,549.98 131.3,-322.31 447.98,-549.98 817.01,-549.98l481.87 0c385.89,0 714.54,248.96 833.84,594.74 939.52,146.34 1662.63,962.56 1662.63,1941.95 0,1696.37 0,3445.34 0,5164.67 0,1082.28 -883.02,1965.3 -1965.3,1965.3l-3660.1 0c-1082.28,0 -1965.3,-883.02 -1965.3,-1965.3 0,-1719.33 0,-3468.3 0,-5164.67z"/><path class="fil1" d="M9760.63 5155.76l0 4378.94c0,695.15 -568.76,1263.91 -1263.91,1263.91l-3660.1 0c-695.15,0 -1263.92,-568.76 -1263.92,-1263.91l0 -4378.94 6187.93 0zm-4787.09 3236.98l918.32 0c145.03,0 263.31,118.29 263.31,263.31l0 918.32c0,145.03 -118.29,263.31 -263.31,263.31l-918.32 0c-145.03,0 -263.31,-118.29 -263.31,-263.31l0 -918.32c0,-145.03 118.28,-263.31 263.31,-263.31zm0 -2276.04l918.32 0c145.03,0 263.31,118.29 263.31,263.31l0 918.32c0,145.03 -118.29,263.31 -263.31,263.31l-918.32 0c-145.03,0 -263.31,-118.28 -263.31,-263.31l0 -918.32c0,-145.03 118.28,-263.31 263.31,-263.31zm2467.93 2276.04l918.32 0c145.03,0 263.31,118.29 263.31,263.31l0 918.32c0,145.03 -118.28,263.31 -263.31,263.31l-918.32 0c-145.03,0 -263.31,-118.29 -263.31,-263.31l0 -918.32c0,-145.03 118.29,-263.31 263.31,-263.31zm0 -2276.04l918.32 0c145.03,0 263.31,118.29 263.31,263.31l0 918.32c0,145.03 -118.28,263.31 -263.31,263.31l-918.32 0c-145.03,0 -263.31,-118.28 -263.31,-263.31l0 -918.32c0,-145.03 118.29,-263.31 263.31,-263.31z"/><path class="fil2" d="M4836.62 3106.11l350.8 0 0 -391.02c0,-99.2 81.17,-180.37 180.37,-180.37l481.87 0c99.2,0 180.37,81.17 180.37,180.37l0 391.02 1273.28 0 0 -391.02c0,-99.2 81.17,-180.37 180.37,-180.37l481.87 0c99.21,0 180.37,81.17 180.37,180.37l0 391.02 350.8 0c695.15,0 1263.92,568.77 1263.92,1263.92l0 197.49 -6187.93 0 0 -197.49c0,-695.15 568.76,-1263.92 1263.92,-1263.92z"/></g></svg>