<?xml version="1.0" ?><!DOCTYPE svg  PUBLIC '-//W3C//DTD SVG 1.1//EN'  'http://www.w3.org/Graphics/SVG/1.1/DTD/svg11.dtd'><svg width="13333.33px" height="13333.33px" viewBox="0 0 13333.33 13333.33" style="shape-rendering:geometricPrecision; text-rendering:geometricPrecision; image-rendering:optimizeQuality; fill-rule:evenodd; clip-rule:evenodd" version="1.1" xml:space="preserve" xmlns="http://www.w3.org/2000/svg" xmlns:xlink="http://www.w3.org/1999/xlink" xmlns:xodm="http://www.corel.com/coreldraw/odm/2003"><defs><style type="text/css">
   <![CDATA[
    .fil0 {fill:none}
    .fil1 {fill:#03A9F4}
    .fil3 {fill:#4FC3F7}
    .fil2 {fill:#FFFF66}
   ]]>
  </style></defs><g id="Layer_x0020_1"><rect class="fil0" height="13333.33" width="13333.33" x="-0" y="-0.01"/><g id="_583279916944"><path class="fil1" d="M3278.8 2068.52l6775.73 0c795.01,0 1445.46,650.46 1445.46,1445.47l0 4405.36c0,795.01 -650.46,1445.47 -1445.46,1445.47l-2924.91 0 0 974.07 1914.81 0c254.63,0 462.97,208.33 462.97,462.96l0 0c0,254.63 -208.33,462.96 -462.97,462.96l-4755.54 0c-254.63,0 -462.97,-208.33 -462.97,-462.96l0 0c0,-254.63 208.33,-462.96 462.97,-462.96l1914.81 0 0 -974.07 -2924.91 0c-795.01,0 -1445.46,-650.46 -1445.46,-1445.47l0 -4405.36c0,-795.01 650.46,-1445.47 1445.46,-1445.47z"/><path class="fil2" d="M3278.8 2994.44c-283.92,0 -519.54,235.62 -519.54,519.55l0 4405.36c0,283.93 235.62,519.54 519.54,519.54l6775.73 0c283.92,0 519.54,-235.62 519.54,-519.54l0 -4405.36c0,-283.93 -235.62,-519.55 -519.54,-519.55l-6775.73 0z"/><path class="fil3" d="M10574.07 7135.18l-7814.82 0 0 784.16c0,283.93 235.62,519.54 519.54,519.54l6775.73 0c283.92,0 519.54,-235.62 519.54,-519.54l0 -784.16z"/><circle class="fil1" cx="6666.67" cy="7787.03" r="296.29"/></g></g></svg>