<?xml version="1.0" ?><!DOCTYPE svg  PUBLIC '-//W3C//DTD SVG 1.1//EN'  'http://www.w3.org/Graphics/SVG/1.1/DTD/svg11.dtd'><svg width="13333.33px" height="13333.33px" viewBox="0 0 13333.33 13333.33" style="shape-rendering:geometricPrecision; text-rendering:geometricPrecision; image-rendering:optimizeQuality; fill-rule:evenodd; clip-rule:evenodd" version="1.1" xml:space="preserve" xmlns="http://www.w3.org/2000/svg" xmlns:xlink="http://www.w3.org/1999/xlink" xmlns:xodm="http://www.corel.com/coreldraw/odm/2003"><defs><style type="text/css">
   <![CDATA[
    .fil0 {fill:none}
    .fil1 {fill:#03A9F4}
    .fil3 {fill:#4FC3F7}
    .fil2 {fill:#FFFF66}
   ]]>
  </style></defs><g id="Layer_x0020_1"><rect class="fil0" height="13333.33" width="13333.33" x="-0" y="-0.01"/><path class="fil1" d="M4066.67 1833.33l5200 0c1229.95,0 2233.33,1003.38 2233.33,2233.33l0 5200c0,1229.95 -1003.38,2233.33 -2233.33,2233.33l-5200 0c-1229.95,0 -2233.33,-1003.38 -2233.33,-2233.33l0 -5200c0,-1229.95 1003.38,-2233.33 2233.33,-2233.33z"/><rect class="fil2" height="8000" rx="1400" ry="1400" width="8000" x="2666.67" y="2666.67"/><path class="fil1" d="M9833.33 7406.67l-1540 -1540 -850 850 -2112.52 -2112.52 -1830.81 1830.81 0 2831.71c0,310.02 256.65,566.67 566.67,566.67l5200 0c310.02,0 566.67,-256.65 566.67,-566.67l0 -1860z"/><circle class="fil1" cx="8540" cy="4306.66" r="573.33"/><path class="fil3" d="M2666.67 6434.96l0 2831.71c0,770 630,1400 1400,1400l5200 0c770,0 1400,-630 1400,-1400l0 -1860 -833.33 0 0 1860c0,310.02 -256.65,566.67 -566.67,566.67l-5200 0c-310.02,0 -566.67,-256.65 -566.67,-566.67l0 -2831.71 -833.33 0z"/></g></svg>